<svg preserveAspectRatio="none" width="100%" height="100%" overflow="visible" style="display: block;" viewBox="0 0 66.4697 71.3318" fill="none" xmlns="http://www.w3.org/2000/svg">
<g id="Group">
<path id="Vector" d="M29.9173 3.34423C30.9322 2.78061 32.0739 2.48485 33.2348 2.48485C34.3958 2.48485 35.5375 2.78061 36.5524 3.34423L62.2287 17.6054C62.761 17.9014 63.2045 18.3344 63.5133 18.8594C63.8221 19.3844 63.9849 19.9825 63.9849 20.5916V48.7278C63.9852 49.9469 63.6593 51.1439 63.0411 52.1947C62.4229 53.2454 61.5349 54.1117 60.4691 54.7036L36.5524 67.9876C35.5375 68.5512 34.3958 68.8469 33.2348 68.8469C32.0739 68.8469 30.9322 68.5512 29.9173 67.9876L6.0006 54.7001C4.93581 54.1088 4.04842 53.2437 3.43029 52.1942C2.81216 51.1448 2.48575 49.9492 2.48485 48.7312V20.5916C2.48482 19.9825 2.64763 19.3844 2.9564 18.8594C3.26517 18.3344 3.70869 17.9014 4.24102 17.6054L29.9173 3.34423Z" stroke="var(--stroke-0, #777777)" stroke-width="4.9697" stroke-linecap="round" stroke-linejoin="round"/>
<path id="Vector_2" d="M2.48485 18.5826L33.2348 35.6659M33.2348 35.6659L63.9849 18.5826M33.2348 35.6659V68.1243" stroke="var(--stroke-0, #777777)" stroke-width="4.9697" stroke-linejoin="round"/>
<path id="Vector_3" d="M17.8598 27.1243L48.6099 10.0409M12.7348 36.7866L22.9848 42.4993" stroke="var(--stroke-0, #777777)" stroke-width="4.9697" stroke-linecap="round" stroke-linejoin="round"/>
</g>
</svg>
