<svg xmlns="http://www.w3.org/2000/svg" version="1.1" xmlns:xlink="http://www.w3.org/1999/xlink" width="1000" height="1000"><g clip-path="url(#SvgjsClipPath1163)"><rect width="1000" height="1000" fill="#ffffff"></rect><g transform="matrix(6.756756756756757,0,0,6.756756756756757,0,0)"><svg xmlns="http://www.w3.org/2000/svg" width="148" height="148" viewBox="0 0 148 148" fill="none"><path d="M63.6361 82.9992C63.6361 82.9992 63.6341 83.003 63.6322 83.0049L49.9564 93.8387C44.4024 98.2375 36.4543 97.3875 32.2062 91.9497C27.9563 86.5099 29.0121 78.5316 34.566 74.1328L35.0873 73.7221C35.2801 73.5693 35.2782 73.2771 35.0854 73.1262L34.5851 72.7365C29.1438 68.4829 28.2999 60.5294 32.6988 54.977C37.0958 49.4206 45.0687 48.3644 50.5082 52.6161L57.6945 58.2374C58.0458 58.5124 58.5002 58.0579 58.2253 57.7064L52.6083 50.5151C48.3526 45.0734 49.4123 37.099 54.9662 32.702C60.5202 28.3032 68.4626 29.1436 72.7183 34.5892L73.1078 35.0896C73.2586 35.2825 73.5507 35.2844 73.7035 35.0896L74.1139 34.5681C78.5109 29.0118 86.4839 27.9556 91.9233 32.2073C92.3242 32.5187 92.6984 32.851 93.0459 33.1986C97.4582 37.6128 97.8839 44.8136 93.8077 49.9612L82.9747 63.6466C80.5347 66.7294 76.8441 68.5612 72.9608 68.6128C71.3608 68.6338 69.8029 68.3511 68.3576 67.7991C68.0216 67.6711 67.6588 68.0321 67.7867 68.3683C68.3366 69.8142 68.6211 71.3728 68.6001 72.9734C68.5485 76.8565 66.7214 80.5486 63.638 82.9877C63.6361 82.9877 63.6341 82.9916 63.6341 82.9935L63.6361 82.9992Z" fill="#0090FF"></path><path d="M97.4982 95.3785C97.4982 95.3785 97.502 95.3747 97.4982 95.3727L90.3118 89.7553C89.9605 89.4803 89.5061 89.9349 89.781 90.2863L95.3999 97.4795C99.6499 102.919 98.5922 110.898 93.0382 115.296C87.4842 119.695 79.538 118.855 75.2861 113.411L74.8966 112.911C74.7458 112.718 74.4537 112.716 74.301 112.909L73.8905 113.43C69.4935 118.987 61.5205 120.043 56.0811 115.791C50.6455 111.543 49.7997 103.588 54.1967 98.0315L65.0297 84.3461C67.4716 81.2633 71.1622 79.4315 75.0436 79.378C76.6436 79.357 78.2034 79.6416 79.6487 80.1936C79.9847 80.3216 80.3456 79.9606 80.2177 79.6244C79.6659 78.1766 79.3814 76.618 79.4024 75.0174C79.454 71.1343 81.283 67.4403 84.3664 64.9992L98.0461 54.1617C103.192 50.0856 110.393 50.5135 114.802 54.9238C115.149 55.2714 115.481 55.6477 115.792 56.0469C120.042 61.4867 118.985 69.4649 113.433 73.8638L112.911 74.2744C112.719 74.4272 112.719 74.7195 112.913 74.8704L113.414 75.26C118.851 79.506 119.695 87.4633 115.298 93.0196C110.903 98.574 102.932 99.6321 97.4943 95.3842C97.4924 95.3842 97.4924 95.3785 97.4943 95.3785H97.4982Z" fill="#0090FF"></path></svg></g></g><defs><clipPath id="SvgjsClipPath1163"><rect width="1000" height="1000" x="0" y="0" rx="500" ry="500"></rect></clipPath></defs></svg>