<svg preserveAspectRatio="none" width="100%" height="100%" overflow="visible" style="display: block;" viewBox="0 0 24 24" fill="none" xmlns="http://www.w3.org/2000/svg">
<g id="Shape">
<g id="Normal">
<path d="M4.00022 4.49949C3.30987 4.49949 2.75022 5.05913 2.75022 5.74949C2.75022 6.43984 3.30987 6.99949 4.00022 6.99949H20.0002C20.6905 6.99949 21.2502 6.43984 21.2502 5.74949C21.2502 5.05913 20.6905 4.49949 20.0002 4.49949H4.00022Z" fill="black"/>
<path d="M2.75024 11.9997C2.75024 11.3093 3.30988 10.7497 4.00023 10.7497H20.0002C20.6905 10.7497 21.2502 11.3093 21.2502 11.9997C21.2502 12.69 20.6905 13.2497 20.0002 13.2497H4.00023C3.30988 13.2497 2.75024 12.69 2.75024 11.9997Z" fill="black"/>
<path d="M2.75023 18.2494C2.75023 17.559 3.30988 16.9994 4.00023 16.9994H20.0002C20.6905 16.9994 21.2502 17.559 21.2502 18.2494C21.2502 18.9397 20.6905 19.4994 20.0002 19.4994H4.00023C3.30988 19.4994 2.75023 18.9397 2.75023 18.2494Z" fill="black"/>
</g>
</g>
</svg>
