<svg width="24" height="24" viewBox="0 0 24 24" fill="none" xmlns="http://www.w3.org/2000/svg">
<path d="M12.002 2.3501C17.3313 2.35033 21.6523 6.67109 21.6523 12.0005C21.6523 13.5382 21.2899 14.9936 20.6484 16.2856L21.1338 18.062L21.1367 18.0728C21.2515 18.4934 21.354 18.8693 21.4082 19.1763C21.4619 19.4808 21.4987 19.8679 21.3516 20.2534C21.1586 20.7583 20.7589 21.1572 20.2539 21.3501C19.8686 21.4971 19.4822 21.4605 19.1777 21.4067C18.8708 21.3525 18.4949 21.25 18.0742 21.1353L18.0635 21.1323L16.2871 20.647C14.9951 21.2884 13.5397 21.6508 12.002 21.6509C6.67256 21.6509 2.35177 17.3299 2.35156 12.0005C2.35156 6.67094 6.67243 2.3501 12.002 2.3501ZM8.00195 13.1001C7.5049 13.1001 7.10156 13.5034 7.10156 14.0005C7.10183 14.4973 7.50506 14.9009 8.00195 14.9009H12.752C13.2485 14.9005 13.6521 14.4971 13.6523 14.0005C13.6523 13.5037 13.2487 13.1005 12.752 13.1001H8.00195ZM8.00195 9.1001C7.5049 9.1001 7.10156 9.50343 7.10156 10.0005C7.10183 10.4973 7.50506 10.9009 8.00195 10.9009H16.002C16.4985 10.9005 16.9021 10.4971 16.9023 10.0005C16.9023 9.50369 16.4987 9.10052 16.002 9.1001H8.00195Z" fill="white"/>
<path fill-rule="evenodd" clip-rule="evenodd" d="M2.35156 12.0001C2.35156 6.67055 6.67199 2.3501 12.0015 2.3501C17.331 2.3501 21.6515 6.67055 21.6515 12.0001C21.6515 13.5384 21.2909 14.9948 20.649 16.2873L21.1433 18.0997C21.2552 18.5098 21.355 18.8758 21.4081 19.1763C21.4619 19.4809 21.4985 19.867 21.3513 20.2526C21.1583 20.7579 20.7593 21.157 20.254 21.3499C19.8683 21.4971 19.4823 21.4605 19.1777 21.4067C18.8771 21.3537 18.5113 21.2538 18.1011 21.1419L16.2887 20.6476C14.9962 21.2895 13.5399 21.6501 12.0015 21.6501C6.67199 21.6501 2.35156 17.3296 2.35156 12.0001ZM7.1012 10C7.1012 9.50294 7.50414 9.1 8.0012 9.1H16.0012C16.4982 9.1 16.9012 9.50294 16.9012 10C16.9012 10.4971 16.4982 10.9 16.0012 10.9H8.0012C7.50414 10.9 7.1012 10.4971 7.1012 10ZM7.1012 14C7.1012 13.5029 7.50414 13.1 8.0012 13.1H12.7512C13.2482 13.1 13.6512 13.5029 13.6512 14C13.6512 14.4971 13.2482 14.9 12.7512 14.9H8.0012C7.50414 14.9 7.1012 14.4971 7.1012 14Z" fill="white"/>
</svg>
