<svg width="24" height="24" viewBox="0 0 24 24" fill="none" xmlns="http://www.w3.org/2000/svg">
<path d="M8.1837 15.822C11.4926 19.131 14.8263 20.3537 17.0103 20.7962C18.8232 21.1634 20.4931 20.3417 21.6572 19.1777L21.9292 18.9057C23.1963 17.6385 23.0224 15.5368 21.5641 14.4952L19.5696 13.0705C18.6149 12.3886 17.3071 12.4969 16.4775 13.3264L15.6484 14.1555C15.0424 13.9037 13.8235 13.2594 12.2849 11.7208C10.7463 10.1822 10.102 8.96327 9.85018 8.35727L10.6793 7.52816C11.5089 6.69858 11.6171 5.39082 10.9352 4.43614L9.51049 2.44155C8.4689 0.983321 6.36722 0.809381 5.10007 2.07653L4.82807 2.34854C3.66401 3.5126 2.84234 5.18255 3.20958 6.99541C3.652 9.1794 4.87477 12.5131 8.1837 15.822Z" fill="#0049AB"/>
</svg>
