<svg preserveAspectRatio="none" width="100%" height="100%" overflow="visible" style="display: block;" viewBox="0 0 36.7784 36.7784" fill="none" xmlns="http://www.w3.org/2000/svg">
<g id="Group" opacity="0.7">
<path id="Vector" fill-rule="evenodd" clip-rule="evenodd" d="M36.7784 18.3892C36.7784 28.5452 28.5451 36.7784 18.3892 36.7784C8.23325 36.7784 0 28.5452 0 18.3892C0 8.2333 8.23325 4.88281e-05 18.3892 4.88281e-05C28.5451 4.88281e-05 36.7784 8.2333 36.7784 18.3892Z" fill="var(--fill-0, #777777)"/>
<path id="Vector_2" fill-rule="evenodd" clip-rule="evenodd" d="M18.3893 8.92915C15.8199 8.92915 15.4981 8.93937 14.4888 8.98636C13.4825 9.03233 12.7939 9.19171 12.1922 9.42566C11.571 9.66778 11.0428 9.99164 10.5167 10.5168C9.99159 11.0429 9.66773 11.5711 9.42561 12.1922C9.19166 12.795 9.03229 13.4825 8.98631 14.4888C8.94034 15.4982 8.9291 15.82 8.9291 18.3894C8.9291 20.9587 8.93932 21.2806 8.98631 22.2899C9.03229 23.2972 9.19166 23.9848 9.42561 24.5865C9.66773 25.2087 9.99159 25.7358 10.5167 26.262C11.0428 26.7881 11.571 27.111 12.1922 27.3531C12.7949 27.587 13.4825 27.7464 14.4888 27.7924C15.4981 27.8383 15.8199 27.8496 18.3893 27.8496C20.9587 27.8496 21.2805 27.8394 22.2899 27.7924C23.2962 27.7464 23.9847 27.587 24.5865 27.3531C25.2076 27.111 25.7358 26.7881 26.2619 26.262C26.787 25.7358 27.1109 25.2087 27.353 24.5865C27.587 23.9838 27.7464 23.2972 27.7923 22.2899C27.8383 21.2806 27.8495 20.9587 27.8495 18.3894C27.8495 15.82 27.8393 15.4982 27.7923 14.4888C27.7464 13.4825 27.587 12.7939 27.353 12.1922C27.1109 11.5711 26.787 11.0429 26.2619 10.5168C25.7358 9.99164 25.2076 9.66778 24.5865 9.42566C23.9837 9.19171 23.2962 9.03233 22.2899 8.98636C21.2805 8.93937 20.9587 8.92915 18.3893 8.92915ZM18.3893 10.6342C20.9148 10.6342 21.2141 10.6445 22.2122 10.6894C23.1348 10.7303 23.6353 10.8856 23.9694 11.0143C24.4097 11.1859 24.7254 11.3913 25.0564 11.7223C25.3874 12.0533 25.5928 12.369 25.7644 12.8103C25.8931 13.1433 26.0474 13.6439 26.0893 14.5675C26.1353 15.5646 26.1444 15.8639 26.1444 18.3894C26.1444 20.9158 26.1353 21.2142 26.0893 22.2123C26.0484 23.1348 25.8931 23.6354 25.7644 23.9695C25.5928 24.4098 25.3864 24.7255 25.0564 25.0565C24.7254 25.3875 24.4097 25.5928 23.9684 25.7645C23.6353 25.8932 23.1347 26.0474 22.2112 26.0893C21.2151 26.1353 20.9158 26.1445 18.3893 26.1445C15.8628 26.1445 15.5635 26.1353 14.5664 26.0893C13.6439 26.0485 13.1433 25.8932 12.8092 25.7645C12.3689 25.5928 12.0532 25.3865 11.7222 25.0565C11.3912 24.7255 11.1859 24.4098 11.0142 23.9684C10.8855 23.6354 10.7312 23.1348 10.6894 22.2113C10.6434 21.2141 10.6342 20.9158 10.6342 18.3894C10.6342 15.8639 10.6434 15.5646 10.6894 14.5665C10.7302 13.6439 10.8855 13.1433 11.0142 12.8093C11.1859 12.369 11.3922 12.0533 11.7222 11.7223C12.0532 11.3913 12.3689 11.1859 12.8102 11.0143C13.1433 10.8856 13.6439 10.7313 14.5674 10.6894C15.5645 10.6434 15.8639 10.6342 18.3893 10.6342Z" fill="var(--fill-0, white)"/>
<path id="Vector_3" fill-rule="evenodd" clip-rule="evenodd" d="M18.3889 21.5429C16.647 21.5429 15.2351 20.131 15.2351 18.3891C15.2351 16.6473 16.647 15.2354 18.3889 15.2354C20.1307 15.2354 21.5426 16.6473 21.5426 18.3891C21.5426 20.131 20.1307 21.5429 18.3889 21.5429ZM18.3889 13.5313C15.7061 13.5313 13.5311 15.7064 13.5311 18.3891C13.5311 21.0719 15.7061 23.247 18.3889 23.247C21.0716 23.247 23.2467 21.0719 23.2467 18.3891C23.2467 15.7064 21.0716 13.5313 18.3889 13.5313ZM24.5738 13.3393C24.5738 13.9665 24.066 14.4743 23.4387 14.4743C22.8115 14.4743 22.3037 13.9665 22.3037 13.3403C22.3037 12.712 22.8115 12.2042 23.4377 12.2042C24.066 12.2042 24.5738 12.712 24.5738 13.3393Z" fill="var(--fill-0, white)"/>
</g>
</svg>
