<svg preserveAspectRatio="none" width="100%" height="100%" overflow="visible" style="display: block;" viewBox="0 0 37.8 36.7784" fill="none" xmlns="http://www.w3.org/2000/svg">
<g id="icn-kakao.svg" clip-path="url(#clip0_0_12)">
<g id="Group" opacity="0.7">
<path id="Vector" fill-rule="evenodd" clip-rule="evenodd" d="M36.7784 18.3898C36.7784 28.5447 28.5441 36.779 18.3892 36.779C8.23427 36.779 0 28.5447 0 18.3898C0 8.23486 8.23427 0.000585938 18.3892 0.000585938C28.5441 0.000585938 36.7784 8.23486 36.7784 18.3898Z" fill="var(--fill-0, #777777)"/>
</g>
<path id="Vector_2" d="M16.7549 17.0413L16.1011 18.9211H17.3577L16.7549 17.0413ZM16.7549 17.0413L16.1011 18.9211H17.3577L16.7549 17.0413ZM18.9003 10.1045C13.118 10.1045 8.42871 13.8028 8.42871 18.3796C8.42871 21.3525 10.4209 23.9577 13.3938 25.4186C13.1793 26.2359 12.6071 28.3813 12.4948 28.841C12.3517 29.4029 12.6991 29.4029 12.9238 29.2497C13.1077 29.1271 15.7946 27.2984 16.9593 26.5117C17.5824 26.6037 18.2363 26.6548 18.9003 26.6548C24.6827 26.6548 29.372 22.9463 29.372 18.3796C29.372 13.813 24.6827 10.1045 18.9003 10.1045ZM13.7922 20.5046C13.7922 21.0154 12.6787 21.0052 12.6787 20.5046V16.8472H11.5957C10.9623 16.8472 10.9623 15.8154 11.5957 15.8154C11.5957 15.8154 14.1191 15.8358 14.8751 15.8358C15.5392 15.8358 15.5392 16.8983 14.8751 16.8983C14.16 16.8983 13.8024 16.8983 13.8024 16.8983V20.5148L13.7922 20.5046ZM17.9094 20.6374C17.654 19.9427 17.7255 19.9121 17.7255 19.9121H15.7537L15.529 20.6681C15.3042 21.1993 14.3133 20.76 14.538 20.239C14.8547 19.5034 15.815 16.745 16.0807 16.1627C16.1828 15.9277 16.4382 15.8358 16.6834 15.8358C16.9899 15.8358 17.3066 15.9788 17.3985 16.1627C17.5927 16.5714 18.6347 19.4523 18.9412 20.2492C19.1455 20.8111 18.1239 21.1993 17.9094 20.6374ZM21.9141 20.8928H19.7483C19.2375 20.8928 19.3192 20.2901 19.3192 20.2901V16.3364C19.3192 16.0095 19.6053 15.846 19.9015 15.846C20.1978 15.846 20.4838 16.0095 20.4838 16.3364C20.4838 17.0107 20.4736 19.8099 20.4736 19.8099H21.9141C22.4147 19.8099 22.4147 20.8928 21.9141 20.8928ZM25.3876 20.8009L23.9676 18.87L23.6509 19.1254V20.5863C23.6509 21.0256 22.5373 21.0256 22.5373 20.5863C22.5373 20.3105 22.568 16.602 22.5577 16.1831C22.5475 15.9584 22.8336 15.846 23.1196 15.846C23.3853 15.846 23.6509 15.9482 23.6509 16.1525C23.6713 16.7144 23.6509 17.7258 23.6509 17.7258L25.4898 15.8869C25.7248 15.6519 26.4501 16.3875 26.2151 16.6224C25.8065 17.0311 24.7849 18.1344 24.7849 18.1344L26.2969 20.1164C26.5829 20.4944 25.6839 21.1789 25.3876 20.8009ZM16.1011 18.9211H17.3577L16.7549 17.0413L16.1011 18.9211Z" fill="var(--fill-0, white)"/>
</g>
<defs>
<clipPath id="clip0_0_12">
<rect width="37.8" height="36.7784" fill="white"/>
</clipPath>
</defs>
</svg>
